<svg width="151" height="111" viewBox="0 0 151 111" fill="none" xmlns="http://www.w3.org/2000/svg">
<path d="M7.7901 14.5474C8.54124 6.30786 15.4503 0 23.724 0H80.4751C89.8852 0 97.2633 8.08134 96.409 17.4526L90.2099 85.4526C89.4588 93.6921 82.5497 100 74.276 100H17.5249C8.11484 100 0.736717 91.9187 1.59103 82.5474L7.7901 14.5474Z" fill="#01ADEE"/>
<g filter="url(#filter0_d_89_918)">
<rect x="50" y="17.2559" width="74" height="66" rx="8" fill="white"/>
</g>
<path d="M80.7497 53H78.5843L75.667 61H77.8097L78.4043 59.3653H80.9297L81.5243 61H83.667L80.7497 53ZM78.891 58.032L79.667 55.9066L80.443 58.0333L78.891 58.032ZM90.659 53H85.9923V61H87.9923V58.3333H90.659C90.923 58.3382 91.1852 58.2898 91.4301 58.191C91.675 58.0922 91.8974 57.9451 92.0841 57.7584C92.2708 57.5717 92.4179 57.3493 92.5167 57.1044C92.6155 56.8596 92.6639 56.5973 92.659 56.3333V55C92.6639 54.736 92.6155 54.4737 92.5167 54.2289C92.4179 53.984 92.2708 53.7616 92.0841 53.5749C91.8974 53.3882 91.675 53.241 91.4301 53.1423C91.1852 53.0435 90.923 52.9951 90.659 53ZM90.659 56.3333H87.9923V55H90.659V56.3333ZM95.0003 53H97.0003V61H95.0003V53Z" fill="#01ADEE"/>
<path d="M100.333 49V65H73.6667V49H100.333ZM100.333 46.3334H73.6667C72.9594 46.3334 72.2811 46.6143 71.781 47.1144C71.281 47.6145 71 48.2928 71 49V65C71 65.7073 71.281 66.3856 71.781 66.8857C72.2811 67.3858 72.9594 67.6667 73.6667 67.6667H100.333C101.041 67.6667 101.719 67.3858 102.219 66.8857C102.719 66.3856 103 65.7073 103 65V49C103 48.2928 102.719 47.6145 102.219 47.1144C101.719 46.6143 101.041 46.3334 100.333 46.3334Z" fill="#01ADEE"/>
<path d="M50 25.2559C50 20.8376 53.5817 17.2559 58 17.2559H116C120.418 17.2559 124 20.8376 124 25.2559V33.2559H50V25.2559Z" fill="#F2F5FF"/>
<circle cx="60" cy="25.2559" r="2" fill="#01ADEE"/>
<circle opacity="0.2" cx="68" cy="25.2559" r="2" fill="#01ADEE"/>
<defs>
<filter id="filter0_d_89_918" x="39" y="6.25586" width="112" height="104" filterUnits="userSpaceOnUse" color-interpolation-filters="sRGB">
<feFlood flood-opacity="0" result="BackgroundImageFix"/>
<feColorMatrix in="SourceAlpha" type="matrix" values="0 0 0 0 0 0 0 0 0 0 0 0 0 0 0 0 0 0 127 0" result="hardAlpha"/>
<feOffset dx="8" dy="8"/>
<feGaussianBlur stdDeviation="9.5"/>
<feComposite in2="hardAlpha" operator="out"/>
<feColorMatrix type="matrix" values="0 0 0 0 0.662745 0 0 0 0 0.678431 0 0 0 0 0.741176 0 0 0 0.2 0"/>
<feBlend mode="multiply" in2="BackgroundImageFix" result="effect1_dropShadow_89_918"/>
<feBlend mode="normal" in="SourceGraphic" in2="effect1_dropShadow_89_918" result="shape"/>
</filter>
</defs>
</svg>
