<svg width="151" height="111" viewBox="0 0 151 111" fill="none" xmlns="http://www.w3.org/2000/svg">
<path d="M7.7901 14.5474C8.54124 6.30786 15.4503 0 23.724 0H80.4751C89.8852 0 97.2633 8.08134 96.409 17.4526L90.2099 85.4526C89.4588 93.6921 82.5497 100 74.276 100H17.5249C8.11484 100 0.736717 91.9187 1.59103 82.5474L7.7901 14.5474Z" fill="#01ADEE"/>
<g filter="url(#filter0_d_89_757)">
<rect x="50" y="17.2559" width="74" height="66" rx="8" fill="white"/>
</g>
<path d="M96 59C96.5523 59 97 58.5523 97 58C97 57.4477 96.5523 57 96 57C95.4477 57 95 57.4477 95 58C95 58.5523 95.4477 59 96 59Z" fill="#01ADEE"/>
<path d="M91.5245 66.8895C90.8134 67.6006 89.8491 68 88.8435 68C87.2731 68 86 66.7269 86 65.1565C86 64.1509 86.3995 63.1866 87.1105 62.4755L91.034 58.552C91.0116 58.3688 91.0003 58.1845 91 58C90.9993 56.9874 91.3061 55.9984 91.8798 55.164C92.4534 54.3295 93.2669 53.6889 94.2126 53.3269C95.1584 52.965 96.1917 52.8987 97.1759 53.1368C98.1601 53.375 99.0488 53.9063 99.7244 54.6606C100.4 55.4149 100.831 56.3566 100.959 57.361C101.088 58.3654 100.909 59.3852 100.445 60.2855C99.9818 61.1857 99.2558 61.9241 98.3634 62.4027C97.4711 62.8814 96.4544 63.0778 95.448 62.966L91.5245 66.8895ZM88 64.8785C88 65.4979 88.5021 66 89.1215 66C89.4189 66 89.7042 65.8818 89.9145 65.6715L94.792 60.794L95.332 60.918C95.9748 61.071 96.65 61.0099 97.255 60.7442C97.86 60.4785 98.3618 60.0226 98.6841 59.4457C99.0064 58.8689 99.1316 58.2026 99.0407 57.5481C98.9499 56.8936 98.6479 56.2866 98.1806 55.8194C97.7134 55.3521 97.1064 55.0501 96.4519 54.9593C95.7974 54.8684 95.1311 54.9936 94.5543 55.3159C93.9774 55.6382 93.5215 56.14 93.2558 56.745C92.9901 57.35 92.929 58.0252 93.082 58.668L93.206 59.208L88.3285 64.0855C88.1182 64.2958 88 64.5811 88 64.8785ZM77 47C77 46.4477 77.4477 46 78 46C78.5523 46 79 46.4477 79 47V53C79 53.5523 78.5523 54 78 54C77.4477 54 77 53.5523 77 53V47ZM73 47C73 46.4477 73.4477 46 74 46C74.5523 46 75 46.4477 75 47V53C75 53.5523 74.5523 54 74 54C73.4477 54 73 53.5523 73 53V47ZM89 47C89 46.4477 89.4477 46 90 46C90.5523 46 91 46.4477 91 47V51C91 51.5523 90.5523 52 90 52C89.4477 52 89 51.5523 89 51V47ZM85 54H83C82.4696 54 81.9609 53.7893 81.5858 53.4142C81.2107 53.0391 81 52.5304 81 52V48C81 47.4696 81.2107 46.9609 81.5858 46.5858C81.9609 46.2107 82.4696 46 83 46H85C85.5304 46 86.0391 46.2107 86.4142 46.5858C86.7893 46.9609 87 47.4696 87 48V52C87 52.5304 86.7893 53.0391 86.4142 53.4142C86.0391 53.7893 85.5304 54 85 54ZM83 51C83 51.5523 83.4477 52 84 52C84.5523 52 85 51.5523 85 51V49C85 48.4477 84.5523 48 84 48C83.4477 48 83 48.4477 83 49V51ZM73 57C73 56.4477 73.4477 56 74 56C74.5523 56 75 56.4477 75 57V63C75 63.5523 74.5523 64 74 64C73.4477 64 73 63.5523 73 63V57ZM85 57C85 56.4477 85.4477 56 86 56C86.5523 56 87 56.4477 87 57V59C87 59.5523 86.5523 60 86 60C85.4477 60 85 59.5523 85 59V57ZM81 64H79C78.4696 64 77.9609 63.7893 77.5858 63.4142C77.2107 63.0391 77 62.5304 77 62V58C77 57.4696 77.2107 56.9609 77.5858 56.5858C77.9609 56.2107 78.4696 56 79 56H81C81.5304 56 82.0391 56.2107 82.4142 56.5858C82.7893 56.9609 83 57.4696 83 58V62C83 62.5304 82.7893 63.0391 82.4142 63.4142C82.0391 63.7893 81.5304 64 81 64ZM79 61C79 61.5523 79.4477 62 80 62C80.5523 62 81 61.5523 81 61V59C81 58.4477 80.5523 58 80 58C79.4477 58 79 58.4477 79 59V61Z" fill="#01ADEE"/>
<path d="M50 25.2559C50 20.8376 53.5817 17.2559 58 17.2559H116C120.418 17.2559 124 20.8376 124 25.2559V33.2559H50V25.2559Z" fill="#F2F5FF"/>
<circle cx="60" cy="25.2559" r="2" fill="#01ADEE"/>
<circle opacity="0.2" cx="68" cy="25.2559" r="2" fill="#01ADEE"/>
<defs>
<filter id="filter0_d_89_757" x="39" y="6.25586" width="112" height="104" filterUnits="userSpaceOnUse" color-interpolation-filters="sRGB">
<feFlood flood-opacity="0" result="BackgroundImageFix"/>
<feColorMatrix in="SourceAlpha" type="matrix" values="0 0 0 0 0 0 0 0 0 0 0 0 0 0 0 0 0 0 127 0" result="hardAlpha"/>
<feOffset dx="8" dy="8"/>
<feGaussianBlur stdDeviation="9.5"/>
<feComposite in2="hardAlpha" operator="out"/>
<feColorMatrix type="matrix" values="0 0 0 0 0.662745 0 0 0 0 0.678431 0 0 0 0 0.741176 0 0 0 0.2 0"/>
<feBlend mode="multiply" in2="BackgroundImageFix" result="effect1_dropShadow_89_757"/>
<feBlend mode="normal" in="SourceGraphic" in2="effect1_dropShadow_89_757" result="shape"/>
</filter>
</defs>
</svg>
