<svg width="151" height="111" viewBox="0 0 151 111" fill="none" xmlns="http://www.w3.org/2000/svg">
<path d="M7.7901 14.5474C8.54124 6.30786 15.4503 0 23.724 0H80.4751C89.8852 0 97.2633 8.08134 96.409 17.4526L90.2099 85.4526C89.4588 93.6921 82.5497 100 74.276 100H17.5249C8.11484 100 0.736717 91.9187 1.59103 82.5474L7.7901 14.5474Z" fill="#01ADEE"/>
<g filter="url(#filter0_d_89_866)">
<rect x="50" y="17.2559" width="74" height="66" rx="8" fill="white"/>
</g>
<path d="M86.2333 59.6667H76.3333V46.3333H89.6667V52.7067C91.2448 51.6876 93.1536 51.3125 95 51.6587V50C95 49.4477 94.5523 49 94 49H92.3333V46.3333C92.3312 45.6267 92.0496 44.9497 91.55 44.45C91.0503 43.9504 90.3733 43.6688 89.6667 43.6667H87V42C87 41.4477 86.5523 41 86 41H85.3333C84.781 41 84.3333 41.4477 84.3333 42V43.6667H81.6667V42C81.6667 41.4477 81.219 41 80.6667 41H80C79.4477 41 79 41.4477 79 42V43.6667H76.3333C75.6267 43.6688 74.9497 43.9504 74.45 44.45C73.9504 44.9497 73.6688 45.6267 73.6667 46.3333V49H72C71.4477 49 71 49.4477 71 50V50.6667C71 51.219 71.4477 51.6667 72 51.6667H73.6667V54.3333H72C71.4477 54.3333 71 54.781 71 55.3333V56C71 56.5523 71.4477 57 72 57H73.6667V59.6667C73.6688 60.3733 73.9504 61.0503 74.45 61.55C74.9497 62.0496 75.6267 62.3312 76.3333 62.3333H79V64C79 64.5523 79.4477 65 80 65H80.6667C81.219 65 81.6667 64.5523 81.6667 64V62.3333H84.3333V64C84.3333 64.5523 84.781 65 85.3333 65H86C86.5523 65 87 64.5523 87 64V62.344C86.5772 61.5082 86.317 60.5996 86.2333 59.6667Z" fill="#01ADEE"/>
<path d="M83.0624 55.7002C83.3249 55.7002 83.6773 55.5277 83.6773 55.2952C83.6752 55.2697 83.6702 55.2445 83.6623 55.2202L82.2149 50.5029C82.1474 50.2779 81.8699 50.1729 81.5849 50.1729C81.3074 50.1729 81.0299 50.2779 80.9624 50.5029L79.515 55.2202C79.5078 55.2447 79.5028 55.2698 79.5 55.2952C79.5 55.5351 79.8524 55.7002 80.1149 55.7002C80.2799 55.7002 80.4074 55.6332 80.4449 55.4907L80.7299 54.4788H82.4474L82.7324 55.4907C82.7698 55.6332 82.8974 55.7002 83.0624 55.7002ZM80.9324 53.7288L81.5849 51.4264L82.2374 53.7288H80.9324ZM85.4287 55.7002C85.6687 55.7002 85.8974 55.5951 85.8974 55.3927V50.5177C85.8974 50.3077 85.6687 50.2177 85.4287 50.2177C85.1812 50.2177 84.9599 50.3077 84.9599 50.5177V55.3927C84.9599 55.5951 85.1812 55.7002 85.4287 55.7002Z" fill="#01ADEE"/>
<path d="M92.8974 62.4019C93.6886 62.4019 94.4619 62.1673 95.1197 61.7278C95.7775 61.2883 96.2902 60.6636 96.593 59.9327C96.8957 59.2018 96.9749 58.3975 96.8206 57.6216C96.6662 56.8456 96.2853 56.1329 95.7259 55.5735C95.1665 55.0141 94.4537 54.6331 93.6778 54.4788C92.9019 54.3245 92.0976 54.4037 91.3667 54.7064C90.6358 55.0092 90.0111 55.5219 89.5716 56.1797C89.132 56.8375 88.8974 57.6108 88.8974 58.4019C88.8974 59.4628 89.3189 60.4802 90.069 61.2304C90.8192 61.9805 91.8366 62.4019 92.8974 62.4019ZM92.8974 56.4019C93.293 56.4019 93.6797 56.5192 94.0086 56.739C94.3375 56.9588 94.5938 57.2711 94.7452 57.6366C94.8966 58.002 94.9362 58.4042 94.859 58.7921C94.7818 59.1801 94.5914 59.5364 94.3117 59.8161C94.0319 60.0959 93.6756 60.2863 93.2876 60.3635C92.8997 60.4407 92.4975 60.4011 92.1321 60.2497C91.7666 60.0983 91.4543 59.842 91.2345 59.5131C91.0147 59.1842 90.8974 58.7975 90.8974 58.4019C90.8974 57.8715 91.1082 57.3628 91.4832 56.9877C91.8583 56.6126 92.367 56.4019 92.8974 56.4019ZM92.8974 64.4019C91.0409 64.4019 89.2604 65.1394 87.9477 66.4522C86.6349 67.7649 85.8974 69.5454 85.8974 71.4019C85.8974 71.6672 86.0028 71.9215 86.1903 72.109C86.3779 72.2966 86.6322 72.4019 86.8974 72.4019C87.1627 72.4019 87.417 72.2966 87.6045 72.109C87.7921 71.9215 87.8974 71.6672 87.8974 71.4019C87.8974 70.0759 88.4242 68.8041 89.3619 67.8664C90.2996 66.9287 91.5714 66.4019 92.8974 66.4019C94.2235 66.4019 95.4953 66.9287 96.433 67.8664C97.3707 68.8041 97.8974 70.0759 97.8974 71.4019C97.8974 71.6672 98.0028 71.9215 98.1903 72.109C98.3779 72.2966 98.6322 72.4019 98.8974 72.4019C99.1627 72.4019 99.417 72.2966 99.6045 72.109C99.7921 71.9215 99.8974 71.6672 99.8974 71.4019C99.8974 69.5454 99.1599 67.7649 97.8472 66.4522C96.5344 65.1394 94.754 64.4019 92.8974 64.4019Z" fill="#01ADEE"/>
<path d="M50 25.2559C50 20.8376 53.5817 17.2559 58 17.2559H116C120.418 17.2559 124 20.8376 124 25.2559V33.2559H50V25.2559Z" fill="#F2F5FF"/>
<circle cx="60" cy="25.2559" r="2" fill="#01ADEE"/>
<circle opacity="0.2" cx="68" cy="25.2559" r="2" fill="#01ADEE"/>
<defs>
<filter id="filter0_d_89_866" x="39" y="6.25586" width="112" height="104" filterUnits="userSpaceOnUse" color-interpolation-filters="sRGB">
<feFlood flood-opacity="0" result="BackgroundImageFix"/>
<feColorMatrix in="SourceAlpha" type="matrix" values="0 0 0 0 0 0 0 0 0 0 0 0 0 0 0 0 0 0 127 0" result="hardAlpha"/>
<feOffset dx="8" dy="8"/>
<feGaussianBlur stdDeviation="9.5"/>
<feComposite in2="hardAlpha" operator="out"/>
<feColorMatrix type="matrix" values="0 0 0 0 0.662745 0 0 0 0 0.678431 0 0 0 0 0.741176 0 0 0 0.2 0"/>
<feBlend mode="multiply" in2="BackgroundImageFix" result="effect1_dropShadow_89_866"/>
<feBlend mode="normal" in="SourceGraphic" in2="effect1_dropShadow_89_866" result="shape"/>
</filter>
</defs>
</svg>
