<svg width="151" height="111" viewBox="0 0 151 111" fill="none" xmlns="http://www.w3.org/2000/svg">
<path d="M7.7901 14.5474C8.54124 6.30786 15.4503 0 23.724 0H80.4751C89.8852 0 97.2633 8.08134 96.409 17.4526L90.2099 85.4526C89.4588 93.6921 82.5497 100 74.276 100H17.5249C8.11484 100 0.736717 91.9187 1.59103 82.5474L7.7901 14.5474Z" fill="#01ADEE"/>
<g filter="url(#filter0_d_89_936)">
<rect x="50" y="17.2559" width="74" height="66" rx="8" fill="white"/>
</g>
<path d="M88.3332 55H85.6665C85.4897 55 85.3201 55.0702 85.1951 55.1953C85.0701 55.3203 84.9998 55.4899 84.9998 55.6667V65C84.9998 65.1768 85.0701 65.3464 85.1951 65.4714C85.3201 65.5964 85.4897 65.6667 85.6665 65.6667H88.3332C88.51 65.6667 88.6796 65.5964 88.8046 65.4714C88.9296 65.3464 88.9998 65.1768 88.9998 65V55.6667C88.9998 55.4899 88.9296 55.3203 88.8046 55.1953C88.6796 55.0702 88.51 55 88.3332 55ZM82.9998 59H80.3332C80.1564 59 79.9868 59.0702 79.8618 59.1953C79.7367 59.3203 79.6665 59.4899 79.6665 59.6667V65C79.6665 65.1768 79.7367 65.3464 79.8618 65.4714C79.9868 65.5964 80.1564 65.6667 80.3332 65.6667H82.9998C83.1766 65.6667 83.3462 65.5964 83.4712 65.4714C83.5963 65.3464 83.6665 65.1768 83.6665 65V59.6667C83.6665 59.4899 83.5963 59.3203 83.4712 59.1953C83.3462 59.0702 83.1766 59 82.9998 59ZM82.3332 64.3333H80.9998V60.3333H82.3332V64.3333ZM90.3332 57.6667V65C90.3332 65.1768 90.4034 65.3464 90.5284 65.4714C90.6535 65.5964 90.823 65.6667 90.9998 65.6667H93.6665C93.8433 65.6667 94.0129 65.5964 94.1379 65.4714C94.2629 65.3464 94.3332 65.1768 94.3332 65V57.6667C94.3332 57.4899 94.2629 57.3203 94.1379 57.1953C94.0129 57.0702 93.8433 57 93.6665 57H90.9998C90.823 57 90.6535 57.0702 90.5284 57.1953C90.4034 57.3203 90.3332 57.4899 90.3332 57.6667ZM91.6665 58.3333H92.9998V64.3333H91.6665V58.3333Z" fill="#01ADEE"/>
<path d="M82.1783 52.899L82.1783 52.899C82.2164 52.7797 82.3003 52.6804 82.4116 52.6229C82.5228 52.5655 82.6523 52.5546 82.7716 52.5928C82.8909 52.6309 82.9901 52.7148 83.0475 52.8261C83.1049 52.9374 83.1157 53.0669 83.0776 53.1862C82.8081 54.0325 82.2764 54.7711 81.5594 55.2949C80.8424 55.8188 79.9775 56.1007 79.0897 56.1M82.1783 52.899L79.0898 56M82.1783 52.899C82.0092 53.4292 81.7065 53.9069 81.2994 54.2861C80.8922 54.6653 80.3944 54.9333 79.8537 55.0641C79.3131 55.195 78.7479 55.1844 78.2126 55.0333C77.6773 54.8822 77.1898 54.5957 76.7972 54.2015C76.4046 53.8072 76.12 53.3185 75.9709 52.7823C75.8218 52.2461 75.8132 51.6805 75.9459 51.14C76.0786 50.5995 76.3481 50.1022 76.7286 49.6962C77.109 49.2902 77.5874 48.989 78.1179 48.8216M82.1783 52.899L77.8652 48.0171M79.0897 56.1L79.0898 56M79.0897 56.1C79.0898 56.1 79.0899 56.1 79.09 56.1L79.0898 56M79.0897 56.1C78.0892 56.1019 77.1213 55.7448 76.3614 55.0936C75.6015 54.4423 75.1002 53.54 74.9484 52.5505C74.7966 51.561 75.0044 50.5498 75.5341 49.7005C76.0638 48.8512 76.8803 48.2201 77.8353 47.9217M79.0898 56C78.1132 56.0019 77.1682 55.6534 76.4265 55.0177C75.6848 54.382 75.1954 53.5012 75.0473 52.5354C74.8991 51.5695 75.1019 50.5824 75.619 49.7534C76.136 48.9244 76.933 48.3083 77.8652 48.0171M77.8353 47.9217C77.8353 47.9217 77.8353 47.9217 77.8352 47.9217L77.8652 48.0171M77.8353 47.9217C77.8353 47.9217 77.8354 47.9216 77.8354 47.9216L77.8652 48.0171M77.8353 47.9217C77.9546 47.8842 78.0839 47.8957 78.1947 47.9535C78.3056 48.0114 78.3889 48.111 78.4263 48.2303C78.4638 48.3497 78.4523 48.479 78.3945 48.5899C78.3367 48.7008 78.2372 48.7841 78.1179 48.8216M78.1179 48.8216C78.1179 48.8217 78.1179 48.8217 78.1179 48.8217L78.0879 48.7263L78.118 48.8216C78.1179 48.8216 78.1179 48.8216 78.1179 48.8216Z" fill="#01ADEE" stroke="#01ADEE" stroke-width="0.2"/>
<path d="M79.3846 52.1H83.6154C83.7439 52.1 83.8672 52.0489 83.9581 51.9581C84.0489 51.8672 84.1 51.7439 84.1 51.6154C84.1 50.3648 83.6032 49.1654 82.7189 48.2811C81.8346 47.3968 80.6352 46.9 79.3846 46.9C79.2561 46.9 79.1328 46.9511 79.0419 47.0419C78.9511 47.1328 78.9 47.2561 78.9 47.3846V51.6154C78.9 51.7439 78.9511 51.8672 79.0419 51.9581C79.1328 52.0489 79.2561 52.1 79.3846 52.1ZM82.0511 48.9489C82.6403 49.5381 83.0155 50.3061 83.1191 51.1308H79.8692V47.8809C80.6939 47.9845 81.4619 48.3597 82.0511 48.9489Z" fill="#01ADEE" stroke="#01ADEE" stroke-width="0.2"/>
<path d="M50 25.2559C50 20.8376 53.5817 17.2559 58 17.2559H116C120.418 17.2559 124 20.8376 124 25.2559V33.2559H50V25.2559Z" fill="#F2F5FF"/>
<circle cx="60" cy="25.2559" r="2" fill="#01ADEE"/>
<circle opacity="0.2" cx="68" cy="25.2559" r="2" fill="#01ADEE"/>
<defs>
<filter id="filter0_d_89_936" x="39" y="6.25586" width="112" height="104" filterUnits="userSpaceOnUse" color-interpolation-filters="sRGB">
<feFlood flood-opacity="0" result="BackgroundImageFix"/>
<feColorMatrix in="SourceAlpha" type="matrix" values="0 0 0 0 0 0 0 0 0 0 0 0 0 0 0 0 0 0 127 0" result="hardAlpha"/>
<feOffset dx="8" dy="8"/>
<feGaussianBlur stdDeviation="9.5"/>
<feComposite in2="hardAlpha" operator="out"/>
<feColorMatrix type="matrix" values="0 0 0 0 0.662745 0 0 0 0 0.678431 0 0 0 0 0.741176 0 0 0 0.2 0"/>
<feBlend mode="multiply" in2="BackgroundImageFix" result="effect1_dropShadow_89_936"/>
<feBlend mode="normal" in="SourceGraphic" in2="effect1_dropShadow_89_936" result="shape"/>
</filter>
</defs>
</svg>
