<svg width="151" height="111" viewBox="0 0 151 111" fill="none" xmlns="http://www.w3.org/2000/svg">
<path d="M7.7901 14.5474C8.54124 6.30786 15.4503 0 23.724 0H80.4751C89.8852 0 97.2633 8.08134 96.409 17.4526L90.2099 85.4526C89.4588 93.6921 82.5497 100 74.276 100H17.5249C8.11484 100 0.736717 91.9187 1.59103 82.5474L7.7901 14.5474Z" fill="#01ADEE"/>
<g filter="url(#filter0_d_89_882)">
<rect x="50" y="17.2559" width="74" height="66" rx="8" fill="white"/>
</g>
<path fill-rule="evenodd" clip-rule="evenodd" d="M89.0352 59.1887C89.2711 59.1463 89.5103 59.1249 89.75 59.125C90.254 59.125 90.7363 59.2182 91.1805 59.3884L92.948 56.875L93.0155 56.9132C92.3602 56.1811 91.9986 55.2326 92 54.25C92 52.0409 93.7909 50.25 96 50.25C98.2091 50.25 100 52.0409 100 54.25C100 56.4591 98.2091 58.25 96 58.25C95.541 58.25 95.1 58.1726 94.6894 58.0304L92.9006 60.6601C93.4523 61.3632 93.7514 62.2314 93.75 63.125C93.75 65.3341 91.9591 67.125 89.75 67.125C87.5409 67.125 85.75 65.3341 85.75 63.125C85.75 61.9041 86.297 60.811 87.1593 60.0772L84.5638 54.9172C84.296 54.9724 84.0234 55.0002 83.75 55C83.4058 55.0003 83.0629 54.9561 82.73 54.8687L80.8905 58.11C81.6513 58.8381 82.125 59.8637 82.125 61C82.125 63.2091 80.3341 65 78.125 65C75.9159 65 74.125 63.2091 74.125 61C74.125 58.7909 75.9159 57 78.125 57C78.4569 57 78.7792 57.0404 79.0875 57.1165L80.9386 53.8453C80.2048 53.1204 79.75 52.1134 79.75 51C79.75 48.7909 81.5409 47 83.75 47C85.9591 47 87.75 48.7909 87.75 51C87.75 52.1954 87.2256 53.2683 86.3945 54.0013L89.0352 59.1887ZM83.75 53C84.8546 53 85.75 52.1046 85.75 51C85.75 49.8954 84.8546 49 83.75 49C82.6454 49 81.75 49.8954 81.75 51C81.75 52.1046 82.6454 53 83.75 53ZM89.75 65.125C90.8546 65.125 91.75 64.2296 91.75 63.125C91.75 62.0204 90.8546 61.125 89.75 61.125C88.6454 61.125 87.75 62.0204 87.75 63.125C87.75 64.2296 88.6454 65.125 89.75 65.125Z" fill="#01ADEE"/>
<path d="M50 25.2559C50 20.8376 53.5817 17.2559 58 17.2559H116C120.418 17.2559 124 20.8376 124 25.2559V33.2559H50V25.2559Z" fill="#F2F5FF"/>
<circle cx="60" cy="25.2559" r="2" fill="#01ADEE"/>
<circle opacity="0.2" cx="68" cy="25.2559" r="2" fill="#01ADEE"/>
<defs>
<filter id="filter0_d_89_882" x="39" y="6.25586" width="112" height="104" filterUnits="userSpaceOnUse" color-interpolation-filters="sRGB">
<feFlood flood-opacity="0" result="BackgroundImageFix"/>
<feColorMatrix in="SourceAlpha" type="matrix" values="0 0 0 0 0 0 0 0 0 0 0 0 0 0 0 0 0 0 127 0" result="hardAlpha"/>
<feOffset dx="8" dy="8"/>
<feGaussianBlur stdDeviation="9.5"/>
<feComposite in2="hardAlpha" operator="out"/>
<feColorMatrix type="matrix" values="0 0 0 0 0.662745 0 0 0 0 0.678431 0 0 0 0 0.741176 0 0 0 0.2 0"/>
<feBlend mode="multiply" in2="BackgroundImageFix" result="effect1_dropShadow_89_882"/>
<feBlend mode="normal" in="SourceGraphic" in2="effect1_dropShadow_89_882" result="shape"/>
</filter>
</defs>
</svg>
