<svg width="131" height="32" viewBox="0 0 131 32" fill="none" xmlns="http://www.w3.org/2000/svg">
<g clip-path="url(#clip0_115_1214)">
<path d="M4.35818 18.6373H7.73101L5.23524 22.9353H4.31526C3.55886 22.9353 2.81579 22.7374 2.16074 22.3613C1.50569 21.9853 0.96174 21.4444 0.583564 20.7931C0.205387 20.1418 0.00631179 19.403 0.00634766 18.6509C0.00638353 17.8988 0.205529 17.16 0.583768 16.5088L8.92748 2.14188C9.30498 1.49188 9.84761 0.951888 10.501 0.575986C11.1544 0.200084 11.8957 0.00146126 12.6506 8.03212e-06C13.4056 -0.0014452 14.1476 0.194322 14.8025 0.567706C15.4574 0.941089 16.0021 1.47899 16.3821 2.12753L24.9338 16.653H19.9542L12.6415 4.33612L4.35818 18.6373Z" fill="#01ADEE"/>
<path d="M31.6454 18.6373H17.3287L14.835 22.9353H31.6782C32.4346 22.9353 33.1777 22.7374 33.8327 22.3613C34.4878 21.9853 35.0317 21.4444 35.4099 20.7931C35.7881 20.1418 35.9872 19.403 35.9871 18.6509C35.9871 17.8988 35.788 17.16 35.4097 16.5088L27.066 2.14188C26.6885 1.49188 26.1459 0.951888 25.4924 0.575986C24.839 0.200084 24.0977 0.00146126 23.3428 8.03212e-06C22.5879 -0.0014452 21.8459 0.194322 21.191 0.567706C20.5361 0.941089 19.9914 1.47899 19.6114 2.12753L19.1527 2.9103L21.6736 7.15694L23.3347 4.28897L31.6454 18.6373Z" fill="#40BBAD"/>
<path d="M9.77395 27.7021L16.8913 15.4139L14.3409 11.1086L5.94717 25.575C5.56919 26.2265 5.37034 26.9653 5.37061 27.7174C5.37087 28.4695 5.57025 29.2082 5.94869 29.8594C6.32713 30.5105 6.8713 31.0512 7.52651 31.427C8.18171 31.8027 8.92486 32.0004 9.68126 32.0001L26.3669 31.9935C27.1218 31.9932 27.8634 31.7957 28.5174 31.4208C29.1714 31.0459 29.7149 30.5067 30.0934 29.8573C30.4719 29.2078 30.6721 28.4709 30.6741 27.7203C30.676 26.9698 30.4796 26.2318 30.1045 25.5805L29.7036 24.8843H24.656L26.2881 27.7021L9.77395 27.7021Z" fill="#203568"/>
</g>
<defs>
<clipPath id="clip0_115_1214">
<rect width="131" height="32" fill="white"/>
</clipPath>
</defs>
</svg>
