<svg width="152" height="37" viewBox="0 0 152 37" fill="none" xmlns="http://www.w3.org/2000/svg">
<g clip-path="url(#clip0_20_435)">
<path d="M5.03913 21.5494H8.93896L6.05324 26.519H4.9895C4.11492 26.519 3.25575 26.2901 2.49834 25.8553C1.74094 25.4205 1.112 24.7951 0.67473 24.042C0.237464 23.2889 0.00728275 22.4347 0.00732422 21.5651C0.0073657 20.6955 0.237628 19.8413 0.674966 19.0882L10.3224 2.47655C10.7589 1.72498 11.3863 1.10062 12.1418 0.665984C12.8973 0.231347 13.7544 0.00168958 14.6273 9.28714e-06C15.5002 -0.00167101 16.3581 0.224684 17.1153 0.65641C17.8726 1.08813 18.5024 1.71008 18.9418 2.45996L28.8297 19.255H23.072L14.6167 5.01363L5.03913 21.5494Z" fill="#01ADEE"/>
<path d="M36.5899 21.5494H20.0363L17.1528 26.519H36.6279C37.5024 26.519 38.3616 26.2901 39.119 25.8553C39.8764 25.4205 40.5054 24.7951 40.9426 24.042C41.3799 23.2889 41.6101 22.4347 41.61 21.5651C41.61 20.6955 41.3797 19.8413 40.9424 19.0882L31.295 2.47655C30.8585 1.72498 30.2311 1.10062 29.4755 0.665984C28.72 0.231347 27.8629 0.00168958 26.9901 9.28714e-06C26.1172 -0.00167101 25.2592 0.224684 24.502 0.65641C23.7448 1.08813 23.1149 1.71008 22.6755 2.45996L22.1452 3.36503L25.06 8.27521L26.9807 4.95912L36.5899 21.5494Z" fill="#40BBAD"/>
<path d="M11.3008 32.0304L19.5303 17.8222L16.5814 12.8442L6.87612 29.571C6.43908 30.3242 6.20916 31.1785 6.20947 32.0481C6.20978 32.9177 6.44031 33.7719 6.87788 34.5248C7.31545 35.2777 7.94465 35.9028 8.70223 36.3373C9.45982 36.7718 10.3191 37.0004 11.1937 37L30.4864 36.9923C31.3593 36.9919 32.2168 36.7636 32.973 36.3301C33.7291 35.8966 34.3575 35.2732 34.7952 34.5223C35.2328 33.7714 35.4643 32.9194 35.4666 32.0515C35.4689 31.1837 35.2418 30.3304 34.8081 29.5773L34.3445 28.7723H28.5082L30.3954 32.0304L11.3008 32.0304Z" fill="#203568"/>
<path d="M59.3699 26.6703C57.851 26.6931 56.3461 26.3773 54.966 25.7461C53.683 25.1504 52.5329 24.3056 51.5831 23.2613C50.6456 22.2329 49.9069 21.0413 49.4041 19.7463C48.8987 18.457 48.6402 17.0849 48.6422 15.7011C48.636 14.2977 48.9105 12.9072 49.4499 11.6103C49.9822 10.3265 50.7465 9.15059 51.7051 8.1407C52.6987 7.08884 53.9011 6.25351 55.2362 5.68759C56.5713 5.12167 58.0101 4.83747 59.4614 4.85299C60.9703 4.83252 62.4646 5.14831 63.8348 5.77716C65.1203 6.37523 66.271 7.22557 67.2177 8.27705C68.1532 9.31276 68.8915 10.5089 69.3967 11.8072C69.8981 13.0767 70.1565 14.4281 70.1587 15.792C70.1649 17.1938 69.8957 18.5834 69.3662 19.8827C68.2989 22.4974 66.265 24.6064 63.6823 25.7764C62.3271 26.3818 60.8556 26.6868 59.3699 26.6703ZM53.7317 15.7616C53.73 16.5784 53.8533 17.3907 54.0974 18.1706C54.3276 18.9224 54.6943 19.6259 55.1794 20.2463C55.6596 20.8549 56.2682 21.3514 56.9623 21.7008C57.7348 22.0625 58.5786 22.2489 59.4326 22.2462C60.2865 22.2436 61.1291 22.0521 61.8994 21.6857C62.5951 21.325 63.1995 20.8122 63.6671 20.1858C64.1389 19.5504 64.4948 18.8375 64.7186 18.0797C64.9512 17.308 65.0693 16.5067 65.0691 15.7011C65.0715 14.8892 64.9482 14.0817 64.7034 13.3072C64.4674 12.5548 64.0956 11.8514 63.6062 11.2315C63.1255 10.6212 62.5103 10.1288 61.808 9.7922C61.0556 9.43985 60.232 9.26361 59.4004 9.27701C58.5812 9.24909 57.7672 9.41761 57.0272 9.76835C56.2872 10.1191 55.643 10.6417 55.149 11.2921C54.6666 11.9176 54.3049 12.6265 54.0822 13.383C53.8494 14.1546 53.7313 14.956 53.7317 15.7616Z" fill="#203568"/>
<path d="M71.7433 18.6706C71.7206 17.2404 72.0336 15.8246 72.6576 14.5358C73.2209 13.3652 74.0825 12.3615 75.1568 11.6245C76.2359 10.9012 77.5128 10.5259 78.814 10.5497C79.8843 10.5374 80.9378 10.815 81.8616 11.3527C82.7367 11.8484 83.4546 12.578 83.934 13.4586V4.39844H88.8102V21.125C88.8102 21.6099 88.8915 21.9483 89.0541 22.1402C89.2629 22.354 89.547 22.479 89.8465 22.4886V26.5188C89.1644 26.6612 88.4708 26.7423 87.7741 26.7612C87.0579 26.7939 86.3493 26.6032 85.7474 26.2158C85.4935 26.04 85.2777 25.8153 85.1128 25.5551C84.9479 25.2948 84.8372 25.0043 84.7873 24.7007L84.6959 23.8825C84.1659 24.8353 83.3585 25.6064 82.3798 26.0946C81.4255 26.5744 80.3709 26.8236 79.3016 26.8219C78.2587 26.8328 77.2253 26.6244 76.2692 26.2101C75.3556 25.8101 74.5357 25.2254 73.8616 24.4933C73.1703 23.7394 72.6367 22.8563 72.2919 21.8954C71.9194 20.861 71.7337 19.7693 71.7433 18.6706ZM83.9645 20.5834V17.3477C83.7709 16.8338 83.4756 16.3636 83.096 15.9652C82.7281 15.5793 82.2948 15.2607 81.816 15.024C81.3685 14.7968 80.8742 14.6759 80.3718 14.6708C79.8694 14.6657 79.3727 14.7765 78.9207 14.9946C78.4814 15.212 78.0923 15.5175 77.7777 15.8918C77.4499 16.2788 77.1968 16.7226 77.0311 17.201C76.8565 17.7022 76.7689 18.2292 76.772 18.7596C76.7661 19.298 76.8645 19.8325 77.0617 20.3339C77.247 20.8029 77.5211 21.2322 77.8691 21.5985C78.212 21.9598 78.6274 22.2455 79.0883 22.437C79.5711 22.6361 80.0894 22.7362 80.612 22.7311C80.9538 22.7318 81.2935 22.6773 81.6177 22.5697C81.9424 22.4618 82.2542 22.3187 82.5474 22.143C82.8498 21.9598 83.1221 21.7316 83.3549 21.4664C83.5942 21.1984 83.799 20.9018 83.9645 20.5834Z" fill="#203568"/>
<path d="M92.5889 8.79223V4.39844H97.4652V8.79223H92.5889ZM92.5889 26.5188V10.6103H97.4652V26.5188L92.5889 26.5188Z" fill="#203568"/>
<path d="M116.239 26.5188H111.362V17.7611C111.362 16.7323 111.164 15.9853 110.768 15.5202C110.577 15.2927 110.336 15.1116 110.064 14.9906C109.792 14.8696 109.496 14.8121 109.198 14.8222C108.72 14.8302 108.25 14.9501 107.827 15.1722C106.848 15.672 106.089 16.513 105.694 17.5343V26.5188H100.817V10.7922H105.206V13.4748C105.612 12.8588 106.128 12.3225 106.73 11.8929C107.368 11.4419 108.079 11.1036 108.833 10.893C109.676 10.6574 110.548 10.5418 111.423 10.5497C112.46 10.5497 113.298 10.7339 113.938 11.1023C114.549 11.4425 115.055 11.9431 115.4 12.5496C115.736 13.1472 115.963 13.7989 116.071 14.4748C116.181 15.1409 116.237 15.8147 116.239 16.4898V26.5188Z" fill="#203568"/>
<path d="M131.507 5.00464H136.901L144.337 26.519H139.217L137.751 21.701H130.627L129.16 26.519H124.04L131.507 5.00464ZM136.708 18.2768L134.189 10.0044L131.67 18.2768H136.708Z" fill="#203568"/>
<path d="M146.471 26.519V5.00464H151.469V26.519H146.471Z" fill="#203568"/>
</g>
<defs>
<clipPath id="clip0_20_435">
<rect width="151.469" height="37" fill="white"/>
</clipPath>
</defs>
</svg>
