<svg width="80" height="59" viewBox="0 0 80 59" fill="none" xmlns="http://www.w3.org/2000/svg">
<path opacity="0.1" d="M0.64 29.68C0.64 26.32 0.933333 22.9067 1.52 19.44C2.16 15.9733 3.25333 12.8267 4.8 10C6.4 7.17333 8.56 4.88 11.28 3.12C14 1.30666 17.4667 0.399998 21.68 0.399998C25.8933 0.399998 29.36 1.30666 32.08 3.12C34.8 4.88 36.9333 7.17333 38.48 10C40.08 12.8267 41.1733 15.9733 41.76 19.44C42.4 22.9067 42.72 26.32 42.72 29.68C42.72 33.04 42.4 36.4533 41.76 39.92C41.1733 43.3867 40.08 46.5333 38.48 49.36C36.9333 52.1867 34.8 54.5067 32.08 56.32C29.36 58.08 25.8933 58.96 21.68 58.96C17.4667 58.96 14 58.08 11.28 56.32C8.56 54.5067 6.4 52.1867 4.8 49.36C3.25333 46.5333 2.16 43.3867 1.52 39.92C0.933333 36.4533 0.64 33.04 0.64 29.68ZM12.64 29.68C12.64 31.1733 12.6933 32.96 12.8 35.04C12.96 37.12 13.3333 39.12 13.92 41.04C14.5067 42.96 15.3867 44.5867 16.56 45.92C17.7867 47.2533 19.4933 47.92 21.68 47.92C23.8133 47.92 25.4933 47.2533 26.72 45.92C27.9467 44.5867 28.8533 42.96 29.44 41.04C30.0267 39.12 30.3733 37.12 30.48 35.04C30.64 32.96 30.72 31.1733 30.72 29.68C30.72 28.1867 30.64 26.4 30.48 24.32C30.3733 22.24 30.0267 20.24 29.44 18.32C28.8533 16.4 27.9467 14.7733 26.72 13.44C25.4933 12.1067 23.8133 11.44 21.68 11.44C19.4933 11.44 17.7867 12.1067 16.56 13.44C15.3867 14.7733 14.5067 16.4 13.92 18.32C13.3333 20.24 12.96 22.24 12.8 24.32C12.6933 26.4 12.64 28.1867 12.64 29.68ZM68.3838 14.8L57.0238 24.8L50.2238 16.96L68.7038 1.36H79.9038V58H68.3838V14.8Z" fill="#A9ADBD"/>
</svg>
