<svg width="516" height="519" viewBox="0 0 516 519" fill="none" xmlns="http://www.w3.org/2000/svg">
<path d="M45.9848 21.7898C47.1266 9.44397 57.4843 0 69.8828 0H489.678C503.806 0 514.877 12.1426 513.576 26.2102L470.015 497.21C468.873 509.556 458.516 519 446.117 519H26.3221C12.1944 519 1.12301 506.857 2.42407 492.79L45.9848 21.7898Z" fill="#F2F5FF"/>
<path d="M167.428 256L185.182 286.75C188.261 292.083 184.412 298.75 178.254 298.75H142.746C136.588 298.75 132.739 292.083 135.818 286.75L153.572 256C156.651 250.667 164.349 250.667 167.428 256Z" stroke="#40BBAD" stroke-width="10" stroke-linejoin="round"/>
<path d="M45.0981 63.4999L61.9856 92.7499C63.1403 94.7499 61.6969 97.2499 59.3875 97.2499H25.6125C23.3031 97.2499 21.8597 94.7499 23.0144 92.7499L39.9019 63.4999C41.0566 61.4999 43.9434 61.4999 45.0981 63.4999Z" fill="#01ADEE" stroke="#01ADEE" stroke-width="10" stroke-linejoin="round"/>
<path d="M135.268 117.611C135.085 117.524 134.908 117.422 134.738 117.306C134.722 117.101 134.722 116.896 134.738 116.694C134.786 116.093 134.971 115.514 135.268 115C135.565 114.486 135.974 114.036 136.471 113.694C136.637 113.579 136.814 113.476 137 113.388C137.186 113.476 137.363 113.579 137.529 113.694C138.026 114.036 138.435 114.486 138.732 115C139.029 115.514 139.214 116.093 139.262 116.694C139.278 116.896 139.278 117.101 139.262 117.306C139.092 117.422 138.915 117.524 138.732 117.611C138.188 117.87 137.594 118 137 118C136.406 118 135.812 117.87 135.268 117.611Z" fill="#203568" stroke="#01ADEE" stroke-width="10" stroke-linejoin="round"/>
<path d="M155.268 117.611C155.085 117.524 154.908 117.422 154.738 117.306C154.722 117.101 154.722 116.896 154.738 116.694C154.786 116.093 154.971 115.514 155.268 115C155.565 114.486 155.974 114.036 156.471 113.694C156.637 113.579 156.814 113.476 157 113.388C157.186 113.476 157.363 113.579 157.529 113.694C158.026 114.036 158.435 114.486 158.732 115C159.029 115.514 159.214 116.093 159.262 116.694C159.278 116.896 159.278 117.101 159.262 117.306C159.092 117.422 158.915 117.524 158.732 117.611C158.188 117.87 157.594 118 157 118C156.406 118 155.812 117.87 155.268 117.611Z" fill="#203568" stroke="#01ADEE" stroke-width="10" stroke-linejoin="round"/>
<path d="M175.268 117.611C175.085 117.524 174.908 117.422 174.738 117.306C174.722 117.101 174.722 116.896 174.738 116.694C174.786 116.093 174.971 115.514 175.268 115C175.565 114.486 175.974 114.036 176.471 113.694C176.637 113.579 176.814 113.476 177 113.388C177.186 113.476 177.363 113.579 177.529 113.694C178.026 114.036 178.435 114.486 178.732 115C179.029 115.514 179.214 116.093 179.262 116.694C179.278 116.896 179.278 117.101 179.262 117.306C179.092 117.422 178.915 117.524 178.732 117.611C178.188 117.87 177.594 118 177 118C176.406 118 175.812 117.87 175.268 117.611Z" fill="#203568" stroke="#01ADEE" stroke-width="10" stroke-linejoin="round"/>
<path d="M195.268 117.611C195.085 117.524 194.908 117.422 194.738 117.306C194.722 117.101 194.722 116.896 194.738 116.694C194.786 116.093 194.971 115.514 195.268 115C195.565 114.486 195.974 114.036 196.471 113.694C196.637 113.579 196.814 113.476 197 113.388C197.186 113.476 197.363 113.579 197.529 113.694C198.026 114.036 198.435 114.486 198.732 115C199.029 115.514 199.214 116.093 199.262 116.694C199.278 116.896 199.278 117.101 199.262 117.306C199.092 117.422 198.915 117.524 198.732 117.611C198.188 117.87 197.594 118 197 118C196.406 118 195.812 117.87 195.268 117.611Z" fill="#203568" stroke="#01ADEE" stroke-width="10" stroke-linejoin="round"/>
<path d="M133.268 133.611C133.085 133.524 132.908 133.422 132.738 133.306C132.722 133.101 132.722 132.896 132.738 132.694C132.786 132.093 132.971 131.514 133.268 131C133.565 130.486 133.974 130.036 134.471 129.694C134.637 129.579 134.814 129.476 135 129.388C135.186 129.476 135.363 129.579 135.529 129.694C136.026 130.036 136.435 130.486 136.732 131C137.029 131.514 137.214 132.093 137.262 132.694C137.278 132.896 137.278 133.101 137.262 133.306C137.092 133.422 136.915 133.524 136.732 133.611C136.188 133.87 135.594 134 135 134C134.406 134 133.812 133.87 133.268 133.611Z" fill="#203568" stroke="#01ADEE" stroke-width="10" stroke-linejoin="round"/>
<path d="M131.268 149.611C131.085 149.524 130.908 149.422 130.738 149.306C130.722 149.101 130.722 148.896 130.738 148.694C130.786 148.093 130.971 147.514 131.268 147C131.565 146.486 131.974 146.036 132.471 145.694C132.637 145.579 132.814 145.476 133 145.388C133.186 145.476 133.363 145.579 133.529 145.694C134.026 146.036 134.435 146.486 134.732 147C135.029 147.514 135.214 148.093 135.262 148.694C135.278 148.896 135.278 149.101 135.262 149.306C135.092 149.422 134.915 149.524 134.732 149.611C134.188 149.87 133.594 150 133 150C132.406 150 131.812 149.87 131.268 149.611Z" fill="#203568" stroke="#01ADEE" stroke-width="10" stroke-linejoin="round"/>
<path d="M153.268 133.611C153.085 133.524 152.908 133.422 152.738 133.306C152.722 133.101 152.722 132.896 152.738 132.694C152.786 132.093 152.971 131.514 153.268 131C153.565 130.486 153.974 130.036 154.471 129.694C154.637 129.579 154.814 129.476 155 129.388C155.186 129.476 155.363 129.579 155.529 129.694C156.026 130.036 156.435 130.486 156.732 131C157.029 131.514 157.214 132.093 157.262 132.694C157.278 132.896 157.278 133.101 157.262 133.306C157.092 133.422 156.915 133.524 156.732 133.611C156.188 133.87 155.594 134 155 134C154.406 134 153.812 133.87 153.268 133.611Z" fill="#203568" stroke="#01ADEE" stroke-width="10" stroke-linejoin="round"/>
<path d="M151.268 149.611C151.085 149.524 150.908 149.422 150.738 149.306C150.722 149.101 150.722 148.896 150.738 148.694C150.786 148.093 150.971 147.514 151.268 147C151.565 146.486 151.974 146.036 152.471 145.694C152.637 145.579 152.814 145.476 153 145.388C153.186 145.476 153.363 145.579 153.529 145.694C154.026 146.036 154.435 146.486 154.732 147C155.029 147.514 155.214 148.093 155.262 148.694C155.278 148.896 155.278 149.101 155.262 149.306C155.092 149.422 154.915 149.524 154.732 149.611C154.188 149.87 153.594 150 153 150C152.406 150 151.812 149.87 151.268 149.611Z" fill="#203568" stroke="#01ADEE" stroke-width="10" stroke-linejoin="round"/>
<path d="M173.268 133.611C173.085 133.524 172.908 133.422 172.738 133.306C172.722 133.101 172.722 132.896 172.738 132.694C172.786 132.093 172.971 131.514 173.268 131C173.565 130.486 173.974 130.036 174.471 129.694C174.637 129.579 174.814 129.476 175 129.388C175.186 129.476 175.363 129.579 175.529 129.694C176.026 130.036 176.435 130.486 176.732 131C177.029 131.514 177.214 132.093 177.262 132.694C177.278 132.896 177.278 133.101 177.262 133.306C177.092 133.422 176.915 133.524 176.732 133.611C176.188 133.87 175.594 134 175 134C174.406 134 173.812 133.87 173.268 133.611Z" fill="#203568" stroke="#01ADEE" stroke-width="10" stroke-linejoin="round"/>
<path d="M171.268 149.611C171.085 149.524 170.908 149.422 170.738 149.306C170.722 149.101 170.722 148.896 170.738 148.694C170.786 148.093 170.971 147.514 171.268 147C171.565 146.486 171.974 146.036 172.471 145.694C172.637 145.579 172.814 145.476 173 145.388C173.186 145.476 173.363 145.579 173.529 145.694C174.026 146.036 174.435 146.486 174.732 147C175.029 147.514 175.214 148.093 175.262 148.694C175.278 148.896 175.278 149.101 175.262 149.306C175.092 149.422 174.915 149.524 174.732 149.611C174.188 149.87 173.594 150 173 150C172.406 150 171.812 149.87 171.268 149.611Z" fill="#203568" stroke="#01ADEE" stroke-width="10" stroke-linejoin="round"/>
<path d="M193.268 133.611C193.085 133.524 192.908 133.422 192.738 133.306C192.722 133.101 192.722 132.896 192.738 132.694C192.786 132.093 192.971 131.514 193.268 131C193.565 130.486 193.974 130.036 194.471 129.694C194.637 129.579 194.814 129.476 195 129.388C195.186 129.476 195.363 129.579 195.529 129.694C196.026 130.036 196.435 130.486 196.732 131C197.029 131.514 197.214 132.093 197.262 132.694C197.278 132.896 197.278 133.101 197.262 133.306C197.092 133.422 196.915 133.524 196.732 133.611C196.188 133.87 195.594 134 195 134C194.406 134 193.812 133.87 193.268 133.611Z" fill="#203568" stroke="#01ADEE" stroke-width="10" stroke-linejoin="round"/>
<path d="M191.268 149.611C191.085 149.524 190.908 149.422 190.738 149.306C190.722 149.101 190.722 148.896 190.738 148.694C190.786 148.093 190.971 147.514 191.268 147C191.565 146.486 191.974 146.036 192.471 145.694C192.637 145.579 192.814 145.476 193 145.388C193.186 145.476 193.363 145.579 193.529 145.694C194.026 146.036 194.435 146.486 194.732 147C195.029 147.514 195.214 148.093 195.262 148.694C195.278 148.896 195.278 149.101 195.262 149.306C195.092 149.422 194.915 149.524 194.732 149.611C194.188 149.87 193.594 150 193 150C192.406 150 191.812 149.87 191.268 149.611Z" fill="#203568" stroke="#01ADEE" stroke-width="10" stroke-linejoin="round"/>
<path d="M129.268 165.611C129.085 165.524 128.908 165.422 128.738 165.306C128.722 165.101 128.722 164.896 128.738 164.694C128.786 164.093 128.971 163.514 129.268 163C129.565 162.486 129.974 162.036 130.471 161.694C130.637 161.579 130.814 161.476 131 161.388C131.186 161.476 131.363 161.579 131.529 161.694C132.026 162.036 132.435 162.486 132.732 163C133.029 163.514 133.214 164.093 133.262 164.694C133.278 164.896 133.278 165.101 133.262 165.306C133.092 165.422 132.915 165.524 132.732 165.611C132.188 165.87 131.594 166 131 166C130.406 166 129.812 165.87 129.268 165.611Z" fill="#203568" stroke="#01ADEE" stroke-width="10" stroke-linejoin="round"/>
<path d="M149.268 165.611C149.085 165.524 148.908 165.422 148.738 165.306C148.722 165.101 148.722 164.896 148.738 164.694C148.786 164.093 148.971 163.514 149.268 163C149.565 162.486 149.974 162.036 150.471 161.694C150.637 161.579 150.814 161.476 151 161.388C151.186 161.476 151.363 161.579 151.529 161.694C152.026 162.036 152.435 162.486 152.732 163C153.029 163.514 153.214 164.093 153.262 164.694C153.278 164.896 153.278 165.101 153.262 165.306C153.092 165.422 152.915 165.524 152.732 165.611C152.188 165.87 151.594 166 151 166C150.406 166 149.812 165.87 149.268 165.611Z" fill="#203568" stroke="#01ADEE" stroke-width="10" stroke-linejoin="round"/>
<path d="M169.268 165.611C169.085 165.524 168.908 165.422 168.738 165.306C168.722 165.101 168.722 164.896 168.738 164.694C168.786 164.093 168.971 163.514 169.268 163C169.565 162.486 169.974 162.036 170.471 161.694C170.637 161.579 170.814 161.476 171 161.388C171.186 161.476 171.363 161.579 171.529 161.694C172.026 162.036 172.435 162.486 172.732 163C173.029 163.514 173.214 164.093 173.262 164.694C173.278 164.896 173.278 165.101 173.262 165.306C173.092 165.422 172.915 165.524 172.732 165.611C172.188 165.87 171.594 166 171 166C170.406 166 169.812 165.87 169.268 165.611Z" fill="#203568" stroke="#01ADEE" stroke-width="10" stroke-linejoin="round"/>
<path d="M189.268 165.611C189.085 165.524 188.908 165.422 188.738 165.306C188.722 165.101 188.722 164.896 188.738 164.694C188.786 164.093 188.971 163.514 189.268 163C189.565 162.486 189.974 162.036 190.471 161.694C190.637 161.579 190.814 161.476 191 161.388C191.186 161.476 191.363 161.579 191.529 161.694C192.026 162.036 192.435 162.486 192.732 163C193.029 163.514 193.214 164.093 193.262 164.694C193.278 164.896 193.278 165.101 193.262 165.306C193.092 165.422 192.915 165.524 192.732 165.611C192.188 165.87 191.594 166 191 166C190.406 166 189.812 165.87 189.268 165.611Z" fill="#203568" stroke="#01ADEE" stroke-width="10" stroke-linejoin="round"/>
<path d="M127.268 181.611C127.085 181.524 126.908 181.422 126.738 181.306C126.722 181.101 126.722 180.896 126.738 180.694C126.786 180.093 126.971 179.514 127.268 179C127.565 178.486 127.974 178.036 128.471 177.694C128.637 177.579 128.814 177.476 129 177.388C129.186 177.476 129.363 177.579 129.529 177.694C130.026 178.036 130.435 178.486 130.732 179C131.029 179.514 131.214 180.093 131.262 180.694C131.278 180.896 131.278 181.101 131.262 181.306C131.092 181.422 130.915 181.524 130.732 181.611C130.188 181.87 129.594 182 129 182C128.406 182 127.812 181.87 127.268 181.611Z" fill="#203568" stroke="#01ADEE" stroke-width="10" stroke-linejoin="round"/>
<path d="M125.268 197.611C125.085 197.524 124.908 197.422 124.738 197.306C124.722 197.101 124.722 196.896 124.738 196.694C124.786 196.093 124.971 195.514 125.268 195C125.565 194.486 125.974 194.036 126.471 193.694C126.637 193.579 126.814 193.476 127 193.388C127.186 193.476 127.363 193.579 127.529 193.694C128.026 194.036 128.435 194.486 128.732 195C129.029 195.514 129.214 196.093 129.262 196.694C129.278 196.896 129.278 197.101 129.262 197.306C129.092 197.422 128.915 197.524 128.732 197.611C128.188 197.87 127.594 198 127 198C126.406 198 125.812 197.87 125.268 197.611Z" fill="#203568" stroke="#01ADEE" stroke-width="10" stroke-linejoin="round"/>
<path d="M147.268 181.611C147.085 181.524 146.908 181.422 146.738 181.306C146.722 181.101 146.722 180.896 146.738 180.694C146.786 180.093 146.971 179.514 147.268 179C147.565 178.486 147.974 178.036 148.471 177.694C148.637 177.579 148.814 177.476 149 177.388C149.186 177.476 149.363 177.579 149.529 177.694C150.026 178.036 150.435 178.486 150.732 179C151.029 179.514 151.214 180.093 151.262 180.694C151.278 180.896 151.278 181.101 151.262 181.306C151.092 181.422 150.915 181.524 150.732 181.611C150.188 181.87 149.594 182 149 182C148.406 182 147.812 181.87 147.268 181.611Z" fill="#203568" stroke="#01ADEE" stroke-width="10" stroke-linejoin="round"/>
<path d="M145.268 197.611C145.085 197.524 144.908 197.422 144.738 197.306C144.722 197.101 144.722 196.896 144.738 196.694C144.786 196.093 144.971 195.514 145.268 195C145.565 194.486 145.974 194.036 146.471 193.694C146.637 193.579 146.814 193.476 147 193.388C147.186 193.476 147.363 193.579 147.529 193.694C148.026 194.036 148.435 194.486 148.732 195C149.029 195.514 149.214 196.093 149.262 196.694C149.278 196.896 149.278 197.101 149.262 197.306C149.092 197.422 148.915 197.524 148.732 197.611C148.188 197.87 147.594 198 147 198C146.406 198 145.812 197.87 145.268 197.611Z" fill="#203568" stroke="#01ADEE" stroke-width="10" stroke-linejoin="round"/>
<path d="M167.268 181.611C167.085 181.524 166.908 181.422 166.738 181.306C166.722 181.101 166.722 180.896 166.738 180.694C166.786 180.093 166.971 179.514 167.268 179C167.565 178.486 167.974 178.036 168.471 177.694C168.637 177.579 168.814 177.476 169 177.388C169.186 177.476 169.363 177.579 169.529 177.694C170.026 178.036 170.435 178.486 170.732 179C171.029 179.514 171.214 180.093 171.262 180.694C171.278 180.896 171.278 181.101 171.262 181.306C171.092 181.422 170.915 181.524 170.732 181.611C170.188 181.87 169.594 182 169 182C168.406 182 167.812 181.87 167.268 181.611Z" fill="#203568" stroke="#01ADEE" stroke-width="10" stroke-linejoin="round"/>
<path d="M165.268 197.611C165.085 197.524 164.908 197.422 164.738 197.306C164.722 197.101 164.722 196.896 164.738 196.694C164.786 196.093 164.971 195.514 165.268 195C165.565 194.486 165.974 194.036 166.471 193.694C166.637 193.579 166.814 193.476 167 193.388C167.186 193.476 167.363 193.579 167.529 193.694C168.026 194.036 168.435 194.486 168.732 195C169.029 195.514 169.214 196.093 169.262 196.694C169.278 196.896 169.278 197.101 169.262 197.306C169.092 197.422 168.915 197.524 168.732 197.611C168.188 197.87 167.594 198 167 198C166.406 198 165.812 197.87 165.268 197.611Z" fill="#203568" stroke="#01ADEE" stroke-width="10" stroke-linejoin="round"/>
<path d="M187.268 181.611C187.085 181.524 186.908 181.422 186.738 181.306C186.722 181.101 186.722 180.896 186.738 180.694C186.786 180.093 186.971 179.514 187.268 179C187.565 178.486 187.974 178.036 188.471 177.694C188.637 177.579 188.814 177.476 189 177.388C189.186 177.476 189.363 177.579 189.529 177.694C190.026 178.036 190.435 178.486 190.732 179C191.029 179.514 191.214 180.093 191.262 180.694C191.278 180.896 191.278 181.101 191.262 181.306C191.092 181.422 190.915 181.524 190.732 181.611C190.188 181.87 189.594 182 189 182C188.406 182 187.812 181.87 187.268 181.611Z" fill="#203568" stroke="#01ADEE" stroke-width="10" stroke-linejoin="round"/>
<path d="M185.268 197.611C185.085 197.524 184.908 197.422 184.738 197.306C184.722 197.101 184.722 196.896 184.738 196.694C184.786 196.093 184.971 195.514 185.268 195C185.565 194.486 185.974 194.036 186.471 193.694C186.637 193.579 186.814 193.476 187 193.388C187.186 193.476 187.363 193.579 187.529 193.694C188.026 194.036 188.435 194.486 188.732 195C189.029 195.514 189.214 196.093 189.262 196.694C189.278 196.896 189.278 197.101 189.262 197.306C189.092 197.422 188.915 197.524 188.732 197.611C188.188 197.87 187.594 198 187 198C186.406 198 185.812 197.87 185.268 197.611Z" fill="#203568" stroke="#01ADEE" stroke-width="10" stroke-linejoin="round"/>
</svg>
