<svg width="151" height="111" viewBox="0 0 151 111" fill="none" xmlns="http://www.w3.org/2000/svg">
<path d="M7.7901 14.5474C8.54124 6.30786 15.4503 0 23.724 0H80.4751C89.8852 0 97.2633 8.08134 96.409 17.4526L90.2099 85.4526C89.4588 93.6921 82.5497 100 74.276 100H17.5249C8.11484 100 0.736717 91.9187 1.59103 82.5474L7.7901 14.5474Z" fill="#01ADEE"/>
<g filter="url(#filter0_d_89_775)">
<rect x="50" y="17.2559" width="74" height="66" rx="8" fill="white"/>
</g>
<path d="M93.992 49C92.309 48.9978 90.6819 49.6038 89.4103 50.7063C88.1387 51.8088 87.3083 53.3337 87.072 55H80.872C80.6286 54.0573 80.0498 53.2358 79.244 52.6894C78.4382 52.143 77.4608 51.9092 76.495 52.0319C75.5292 52.1546 74.6413 52.6253 73.9977 53.3558C73.3541 54.0863 72.999 55.0264 72.999 56C72.999 56.9736 73.3541 57.9137 73.9977 58.6442C74.6413 59.3747 75.5292 59.8455 76.495 59.9681C77.4608 60.0908 78.4382 59.857 79.244 59.3106C80.0498 58.7642 80.6286 57.9427 80.872 57H87.072C87.2637 58.3284 87.8333 59.5736 88.7128 60.5873C89.5924 61.6011 90.7448 62.3406 92.0328 62.7178C93.3208 63.095 94.6901 63.094 95.9776 62.7149C97.265 62.3358 98.4164 61.5945 99.2944 60.5795C100.172 59.5644 100.74 58.3183 100.93 56.9897C101.12 55.6611 100.923 54.3059 100.365 53.0856C99.8059 51.8654 98.9081 50.8315 97.7783 50.1071C96.6484 49.3827 95.3341 48.9984 93.992 49ZM93.992 61C92.6659 61 91.3942 60.4732 90.4565 59.5355C89.5188 58.5979 88.992 57.3261 88.992 56C88.992 54.6739 89.5188 53.4022 90.4565 52.4645C91.3942 51.5268 92.6659 51 93.992 51C95.3181 51 96.5899 51.5268 97.5275 52.4645C98.4652 53.4022 98.992 54.6739 98.992 56C98.992 57.3261 98.4652 58.5979 97.5275 59.5355C96.5899 60.4732 95.3181 61 93.992 61Z" fill="#01ADEE"/>
<path d="M50 25.2559C50 20.8376 53.5817 17.2559 58 17.2559H116C120.418 17.2559 124 20.8376 124 25.2559V33.2559H50V25.2559Z" fill="#F2F5FF"/>
<circle cx="60" cy="25.2559" r="2" fill="#01ADEE"/>
<circle opacity="0.2" cx="68" cy="25.2559" r="2" fill="#01ADEE"/>
<defs>
<filter id="filter0_d_89_775" x="39" y="6.25586" width="112" height="104" filterUnits="userSpaceOnUse" color-interpolation-filters="sRGB">
<feFlood flood-opacity="0" result="BackgroundImageFix"/>
<feColorMatrix in="SourceAlpha" type="matrix" values="0 0 0 0 0 0 0 0 0 0 0 0 0 0 0 0 0 0 127 0" result="hardAlpha"/>
<feOffset dx="8" dy="8"/>
<feGaussianBlur stdDeviation="9.5"/>
<feComposite in2="hardAlpha" operator="out"/>
<feColorMatrix type="matrix" values="0 0 0 0 0.662745 0 0 0 0 0.678431 0 0 0 0 0.741176 0 0 0 0.2 0"/>
<feBlend mode="multiply" in2="BackgroundImageFix" result="effect1_dropShadow_89_775"/>
<feBlend mode="normal" in="SourceGraphic" in2="effect1_dropShadow_89_775" result="shape"/>
</filter>
</defs>
</svg>
