<svg width="151" height="111" viewBox="0 0 151 111" fill="none" xmlns="http://www.w3.org/2000/svg">
<path opacity="0.4" d="M7.7901 14.5474C8.54124 6.30786 15.4503 0 23.724 0H80.4751C89.8852 0 97.2633 8.08134 96.409 17.4526L90.2099 85.4526C89.4588 93.6921 82.5497 100 74.276 100H17.5249C8.11484 100 0.736717 91.9187 1.59103 82.5474L7.7901 14.5474Z" fill="#01ADEE"/>
<g filter="url(#filter0_d_31_691)">
<rect x="50" y="17.2559" width="74" height="66" rx="8" fill="white"/>
</g>
<path d="M86 61H88V65H86V61ZM91 59H93V65H91V59ZM81 55H83V65H81V55Z" fill="#203568"/>
<path d="M96 46H93V45C93 44.4696 92.7893 43.9609 92.4142 43.5858C92.0391 43.2107 91.5304 43 91 43H83C82.4696 43 81.9609 43.2107 81.5858 43.5858C81.2107 43.9609 81 44.4696 81 45V46H78C77.4696 46 76.9609 46.2107 76.5858 46.5858C76.2107 46.9609 76 47.4696 76 48V69C76 69.5304 76.2107 70.0391 76.5858 70.4142C76.9609 70.7893 77.4696 71 78 71H96C96.5304 71 97.0391 70.7893 97.4142 70.4142C97.7893 70.0391 98 69.5304 98 69V48C98 47.4696 97.7893 46.9609 97.4142 46.5858C97.0391 46.2107 96.5304 46 96 46V46ZM83 45H91V49H83V45ZM96 69H78V48H81V51H93V48H96V69Z" fill="#203568"/>
<path d="M50 25.2559C50 20.8376 53.5817 17.2559 58 17.2559H116C120.418 17.2559 124 20.8376 124 25.2559V33.2559H50V25.2559Z" fill="#F2F5FF"/>
<circle cx="60" cy="25.2559" r="2" fill="#01ADEE"/>
<circle opacity="0.2" cx="68" cy="25.2559" r="2" fill="#01ADEE"/>
<defs>
<filter id="filter0_d_31_691" x="39" y="6.25586" width="112" height="104" filterUnits="userSpaceOnUse" color-interpolation-filters="sRGB">
<feFlood flood-opacity="0" result="BackgroundImageFix"/>
<feColorMatrix in="SourceAlpha" type="matrix" values="0 0 0 0 0 0 0 0 0 0 0 0 0 0 0 0 0 0 127 0" result="hardAlpha"/>
<feOffset dx="8" dy="8"/>
<feGaussianBlur stdDeviation="9.5"/>
<feComposite in2="hardAlpha" operator="out"/>
<feColorMatrix type="matrix" values="0 0 0 0 0.662745 0 0 0 0 0.678431 0 0 0 0 0.741176 0 0 0 0.2 0"/>
<feBlend mode="multiply" in2="BackgroundImageFix" result="effect1_dropShadow_31_691"/>
<feBlend mode="normal" in="SourceGraphic" in2="effect1_dropShadow_31_691" result="shape"/>
</filter>
</defs>
</svg>
