<svg width="28" height="28" viewBox="0 0 28 28" fill="none" xmlns="http://www.w3.org/2000/svg">
<path d="M13.9996 0.559967C6.57677 0.559967 0.55957 6.57717 0.55957 14C0.55957 21.4228 6.57677 27.44 13.9996 27.44C21.4224 27.44 27.4396 21.4228 27.4396 14C27.4396 6.57717 21.4224 0.559967 13.9996 0.559967ZM10.7096 19.5706H7.98797V10.8122H10.7096V19.5706ZM9.33197 9.73697C8.47237 9.73697 7.91657 9.12797 7.91657 8.37477C7.91657 7.60617 8.48917 7.01537 9.36697 7.01537C10.2448 7.01537 10.7824 7.60617 10.7992 8.37477C10.7992 9.12797 10.2448 9.73697 9.33197 9.73697ZM20.6496 19.5706H17.928V14.7168C17.928 13.587 17.5332 12.8198 16.549 12.8198C15.7972 12.8198 15.3506 13.3392 15.1532 13.839C15.0804 14.0168 15.0622 14.2688 15.0622 14.5194V19.5692H12.3392V13.6052C12.3392 12.5118 12.3042 11.5976 12.2678 10.8108H14.6324L14.757 12.0274H14.8116C15.17 11.4562 16.0478 10.6134 17.5164 10.6134C19.307 10.6134 20.6496 11.8132 20.6496 14.392V19.5706Z" fill="#203568"/>
</svg>
