<svg width="89" height="59" viewBox="0 0 89 59" fill="none" xmlns="http://www.w3.org/2000/svg">
<path opacity="0.1" d="M0.64 29.68C0.64 26.32 0.933333 22.9067 1.52 19.44C2.16 15.9733 3.25333 12.8267 4.8 10C6.4 7.17333 8.56 4.88 11.28 3.12C14 1.30666 17.4667 0.399998 21.68 0.399998C25.8933 0.399998 29.36 1.30666 32.08 3.12C34.8 4.88 36.9333 7.17333 38.48 10C40.08 12.8267 41.1733 15.9733 41.76 19.44C42.4 22.9067 42.72 26.32 42.72 29.68C42.72 33.04 42.4 36.4533 41.76 39.92C41.1733 43.3867 40.08 46.5333 38.48 49.36C36.9333 52.1867 34.8 54.5067 32.08 56.32C29.36 58.08 25.8933 58.96 21.68 58.96C17.4667 58.96 14 58.08 11.28 56.32C8.56 54.5067 6.4 52.1867 4.8 49.36C3.25333 46.5333 2.16 43.3867 1.52 39.92C0.933333 36.4533 0.64 33.04 0.64 29.68ZM12.64 29.68C12.64 31.1733 12.6933 32.96 12.8 35.04C12.96 37.12 13.3333 39.12 13.92 41.04C14.5067 42.96 15.3867 44.5867 16.56 45.92C17.7867 47.2533 19.4933 47.92 21.68 47.92C23.8133 47.92 25.4933 47.2533 26.72 45.92C27.9467 44.5867 28.8533 42.96 29.44 41.04C30.0267 39.12 30.3733 37.12 30.48 35.04C30.64 32.96 30.72 31.1733 30.72 29.68C30.72 28.1867 30.64 26.4 30.48 24.32C30.3733 22.24 30.0267 20.24 29.44 18.32C28.8533 16.4 27.9467 14.7733 26.72 13.44C25.4933 12.1067 23.8133 11.44 21.68 11.44C19.4933 11.44 17.7867 12.1067 16.56 13.44C15.3867 14.7733 14.5067 16.4 13.92 18.32C13.3333 20.24 12.96 22.24 12.8 24.32C12.6933 26.4 12.64 28.1867 12.64 29.68ZM62.6238 23.68H66.5438C67.6638 23.68 68.7571 23.6 69.8238 23.44C70.8904 23.28 71.8504 22.9867 72.7038 22.56C73.6104 22.08 74.3304 21.44 74.8638 20.64C75.3971 19.7867 75.6638 18.6933 75.6638 17.36C75.6638 15.6533 74.9704 14.24 73.5838 13.12C72.2504 12 70.5971 11.44 68.6238 11.44C66.7571 11.44 65.2104 11.9467 63.9838 12.96C62.7571 13.9733 61.9571 15.2267 61.5838 16.72L48.3838 14C49.0238 11.5467 49.9838 9.46667 51.2638 7.76C52.5438 6 54.0638 4.58666 55.8238 3.52C57.5838 2.45333 59.5304 1.68 61.6638 1.2C63.8504 0.666664 66.1438 0.399998 68.5438 0.399998C71.0504 0.399998 73.4504 0.719998 75.7438 1.36C78.0904 1.94667 80.1438 2.90666 81.9038 4.24C83.6638 5.52 85.0504 7.14667 86.0638 9.12C87.1304 11.0933 87.6638 13.44 87.6638 16.16C87.6638 19.3067 86.8371 22 85.1838 24.24C83.5304 26.48 81.1304 27.92 77.9838 28.56V28.8C79.6904 29.0133 81.1838 29.52 82.4638 30.32C83.7971 31.12 84.9171 32.1067 85.8238 33.28C86.7304 34.4533 87.4238 35.7867 87.9038 37.28C88.3838 38.7733 88.6238 40.3467 88.6238 42C88.6238 44.8267 88.0638 47.3067 86.9438 49.44C85.8771 51.5733 84.4104 53.36 82.5438 54.8C80.7304 56.1867 78.5704 57.2267 76.0638 57.92C73.6104 58.6133 70.9971 58.96 68.2238 58.96C63.1571 58.96 58.7838 57.7867 55.1038 55.44C51.4771 53.0933 49.0771 49.3867 47.9038 44.32L60.5438 41.36C60.9704 43.3867 61.8238 44.9867 63.1038 46.16C64.4371 47.3333 66.3838 47.92 68.9438 47.92C71.5571 47.92 73.4771 47.2533 74.7038 45.92C75.9838 44.5333 76.6238 42.7733 76.6238 40.64C76.6238 39.04 76.2771 37.8133 75.5838 36.96C74.9438 36.0533 74.0904 35.3867 73.0238 34.96C71.9571 34.5333 70.7571 34.2933 69.4238 34.24C68.0904 34.1333 66.7571 34.08 65.4238 34.08H62.6238V23.68Z" fill="#A9ADBD"/>
</svg>
